<svg id="visual" viewBox="0 0 960 540" width="960" height="540" xmlns="http://www.w3.org/2000/svg" xmlns:xlink="http://www.w3.org/1999/xlink" version="1.1"><path d="M0 44L10 43.2C20 42.3 40 40.7 60 40.7C80 40.7 100 42.3 120 46.8C140 51.3 160 58.7 180 58.7C200 58.7 220 51.3 240 51.3C260 51.3 280 58.7 300 58.7C320 58.7 340 51.3 360 47.7C380 44 400 44 420 47.7C440 51.3 460 58.7 480 58.7C500 58.7 520 51.3 540 46.8C560 42.3 580 40.7 600 42.5C620 44.3 640 49.7 660 49.7C680 49.7 700 44.3 720 43.5C740 42.7 760 46.3 780 50.8C800 55.3 820 60.7 840 61.5C860 62.3 880 58.7 900 56C920 53.3 940 51.7 950 50.8L960 50L960 0L950 0C940 0 920 0 900 0C880 0 860 0 840 0C820 0 800 0 780 0C760 0 740 0 720 0C700 0 680 0 660 0C640 0 620 0 600 0C580 0 560 0 540 0C520 0 500 0 480 0C460 0 440 0 420 0C400 0 380 0 360 0C340 0 320 0 300 0C280 0 260 0 240 0C220 0 200 0 180 0C160 0 140 0 120 0C100 0 80 0 60 0C40 0 20 0 10 0L0 0Z" fill="#aad3c7"></path><path d="M0 179L10 187.2C20 195.3 40 211.7 60 218C80 224.3 100 220.7 120 219.7C140 218.7 160 220.3 180 215C200 209.7 220 197.3 240 188.3C260 179.3 280 173.7 300 170C320 166.3 340 164.7 360 169.2C380 173.7 400 184.3 420 187C440 189.7 460 184.3 480 177.2C500 170 520 161 540 167.3C560 173.7 580 195.3 600 213.3C620 231.3 640 245.7 660 242C680 238.3 700 216.7 720 202.3C740 188 760 181 780 186.5C800 192 820 210 840 213.5C860 217 880 206 900 210.5C920 215 940 235 950 245L960 255L960 48L950 48.8C940 49.7 920 51.3 900 54C880 56.7 860 60.3 840 59.5C820 58.7 800 53.3 780 48.8C760 44.3 740 40.7 720 41.5C700 42.3 680 47.7 660 47.7C640 47.7 620 42.3 600 40.5C580 38.7 560 40.3 540 44.8C520 49.3 500 56.7 480 56.7C460 56.7 440 49.3 420 45.7C400 42 380 42 360 45.7C340 49.3 320 56.7 300 56.7C280 56.7 260 49.3 240 49.3C220 49.3 200 56.7 180 56.7C160 56.7 140 49.3 120 44.8C100 40.3 80 38.7 60 38.7C40 38.7 20 40.3 10 41.2L0 42Z" fill="#8fbbae"></path><path d="M0 271L10 275.5C20 280 40 289 60 291.7C80 294.3 100 290.7 120 294.3C140 298 160 309 180 307.2C200 305.3 220 290.7 240 284.3C260 278 280 280 300 279.2C320 278.3 340 274.7 360 273.7C380 272.7 400 274.3 420 274.3C440 274.3 460 272.7 480 269.2C500 265.7 520 260.3 540 265.7C560 271 580 287 600 301.3C620 315.7 640 328.3 660 329.3C680 330.3 700 319.7 720 307.2C740 294.7 760 280.3 780 276.7C800 273 820 280 840 280.8C860 281.7 880 276.3 900 281.8C920 287.3 940 303.7 950 311.8L960 320L960 253L950 243C940 233 920 213 900 208.5C880 204 860 215 840 211.5C820 208 800 190 780 184.5C760 179 740 186 720 200.3C700 214.7 680 236.3 660 240C640 243.7 620 229.3 600 211.3C580 193.3 560 171.7 540 165.3C520 159 500 168 480 175.2C460 182.3 440 187.7 420 185C400 182.3 380 171.7 360 167.2C340 162.7 320 164.3 300 168C280 171.7 260 177.3 240 186.3C220 195.3 200 207.7 180 213C160 218.3 140 216.7 120 217.7C100 218.7 80 222.3 60 216C40 209.7 20 193.3 10 185.2L0 177Z" fill="#75a496"></path><path d="M0 325L10 334C20 343 40 361 60 364.7C80 368.3 100 357.7 120 355.8C140 354 160 361 180 357.3C200 353.7 220 339.3 240 335.8C260 332.3 280 339.7 300 342.3C320 345 340 343 360 343.8C380 344.7 400 348.3 420 348.3C440 348.3 460 344.7 480 336.5C500 328.3 520 315.7 540 318.3C560 321 580 339 600 353.5C620 368 640 379 660 382.7C680 386.3 700 382.7 720 372.7C740 362.7 760 346.3 780 345.5C800 344.7 820 359.3 840 361.2C860 363 880 352 900 355.5C920 359 940 377 950 386L960 395L960 318L950 309.8C940 301.7 920 285.3 900 279.8C880 274.3 860 279.7 840 278.8C820 278 800 271 780 274.7C760 278.3 740 292.7 720 305.2C700 317.7 680 328.3 660 327.3C640 326.3 620 313.7 600 299.3C580 285 560 269 540 263.7C520 258.3 500 263.7 480 267.2C460 270.7 440 272.3 420 272.3C400 272.3 380 270.7 360 271.7C340 272.7 320 276.3 300 277.2C280 278 260 276 240 282.3C220 288.7 200 303.3 180 305.2C160 307 140 296 120 292.3C100 288.7 80 292.3 60 289.7C40 287 20 278 10 273.5L0 269Z" fill="#5b8d7e"></path><path d="M0 487L10 485.2C20 483.3 40 479.7 60 481.5C80 483.3 100 490.7 120 490.7C140 490.7 160 483.3 180 483.3C200 483.3 220 490.7 240 494.3C260 498 280 498 300 497C320 496 340 494 360 494C380 494 400 496 420 493.3C440 490.7 460 483.3 480 478.8C500 474.3 520 472.7 540 470.8C560 469 580 467 600 471.5C620 476 640 487 660 491.5C680 496 700 494 720 493C740 492 760 492 780 493C800 494 820 496 840 492.5C860 489 880 480 900 480C920 480 940 489 950 493.5L960 498L960 393L950 384C940 375 920 357 900 353.5C880 350 860 361 840 359.2C820 357.3 800 342.7 780 343.5C760 344.3 740 360.7 720 370.7C700 380.7 680 384.3 660 380.7C640 377 620 366 600 351.5C580 337 560 319 540 316.3C520 313.7 500 326.3 480 334.5C460 342.7 440 346.3 420 346.3C400 346.3 380 342.7 360 341.8C340 341 320 343 300 340.3C280 337.7 260 330.3 240 333.8C220 337.3 200 351.7 180 355.3C160 359 140 352 120 353.8C100 355.7 80 366.3 60 362.7C40 359 20 341 10 332L0 323Z" fill="#417768"></path><path d="M0 541L10 541C20 541 40 541 60 541C80 541 100 541 120 541C140 541 160 541 180 541C200 541 220 541 240 541C260 541 280 541 300 541C320 541 340 541 360 541C380 541 400 541 420 541C440 541 460 541 480 541C500 541 520 541 540 541C560 541 580 541 600 541C620 541 640 541 660 541C680 541 700 541 720 541C740 541 760 541 780 541C800 541 820 541 840 541C860 541 880 541 900 541C920 541 940 541 950 541L960 541L960 496L950 491.5C940 487 920 478 900 478C880 478 860 487 840 490.5C820 494 800 492 780 491C760 490 740 490 720 491C700 492 680 494 660 489.5C640 485 620 474 600 469.5C580 465 560 467 540 468.8C520 470.7 500 472.3 480 476.8C460 481.3 440 488.7 420 491.3C400 494 380 492 360 492C340 492 320 494 300 495C280 496 260 496 240 492.3C220 488.7 200 481.3 180 481.3C160 481.3 140 488.7 120 488.7C100 488.7 80 481.3 60 479.5C40 477.7 20 481.3 10 483.2L0 485Z" fill="#276152"></path></svg>